<?xml version="1.0" encoding="utf-8"?>
<!-- Generator: Adobe Illustrator 16.0.0, SVG Export Plug-In . SVG Version: 6.00 Build 0)  -->
<!DOCTYPE svg PUBLIC "-//W3C//DTD SVG 1.1//EN" "http://www.w3.org/Graphics/SVG/1.1/DTD/svg11.dtd">
<svg version="1.1" id="vuu_1_" xmlns="http://www.w3.org/2000/svg" xmlns:xlink="http://www.w3.org/1999/xlink" x="0px" y="0px"
	 width="78px" height="28px" viewBox="0 0 78 28" enable-background="new 0 0 78 28" xml:space="preserve">
<g id="vuu">
	<g>
		<path fill-rule="evenodd" clip-rule="evenodd" fill="#23282B" d="M20.918,0.026C19.476,4.544,12.7,15.98,8.711,18.384
			c-0.048-0.192-0.048-0.385-0.048-0.625c0-3.22,3.172-10.765,3.172-12.206c0-3.364-2.932-5.334-5.815-5.334H5.54
			C4.915,5.024,0.398,18.287,0.398,21.939c0,1.826,2.259,5.19,6.392,5.19c4.469,0,17.732-16.627,17.732-23.548
			C24.522,1.708,23.609,0.219,20.918,0.026z M43.979,20.931c-0.721,0-1.152-0.48-1.152-1.73c0-4.901,6.055-12.35,6.055-15.089
			c0-2.211-4.133-3.652-5.863-3.797c-0.384,2.403-4.132,9.948-6.151,12.591c-1.585,2.066-4.133,5.382-6.872,5.382
			c-0.433-0.24-0.529-0.576-0.529-1.009c0-2.739,5.67-10.092,5.67-13.359c0-2.211-3.652-3.652-6.391-3.652
			c-0.192,5.046-7.161,15.858-7.161,21.433c0,2.787,2.21,5.286,5.19,5.286c2.402,0,5.286-1.634,7.881-6.007
			c0.289,3.508,1.922,6.392,4.758,6.392c4.518,0,8.842-6.151,10.572-10.62C49.169,17.759,45.805,20.931,43.979,20.931z
			 M71.336,20.931c-0.721,0-1.152-0.48-1.152-1.73c0-4.901,6.055-12.35,6.055-15.089c0-2.211-4.133-3.652-5.863-3.797
			c-0.384,2.403-4.133,9.948-6.15,12.591c-1.586,2.066-4.133,5.382-6.873,5.382c-0.432-0.24-0.527-0.576-0.527-1.009
			c0-2.739,5.67-10.092,5.67-13.359c0-2.211-3.652-3.652-6.391-3.652c-0.193,5.046-7.161,15.858-7.161,21.433
			c0,2.787,2.211,5.286,5.19,5.286c2.402,0,5.285-1.634,7.881-6.007c0.288,3.508,1.922,6.392,4.758,6.392
			c4.518,0,8.842-6.151,10.572-10.62C76.527,17.759,73.162,20.931,71.336,20.931z"/>
	</g>
</g>
</svg>
